PathFileType	4	(X/Y/Z)	markers.trc																																																																																																																																																																
DataRate	CameraRate	NumFrames	NumMarkers	Units	OrigDataRate	OrigDataStartFrame	OrigNumFrames																																																																																																																																																												
200	200	4	54	mm	200	998	100																																																																																																																																																												
Frame#	Time	FHD			LBHD			RBHD			C7			T10			CLAV			LSHO			LUUPA			LMUPA			LDUPA			LLEP			LMEP			LRAD			LUL			LRFIN			RSHO			RUPA1			RMUPA			RDUPA			RLEP			RMEP			RRAD			RUL			RUFIN			RASI			USACR			LSACR			RSACR			LTHI1			LTHI2			LTHI3			LTHI4			LTIB1			LTIB2			LTIB3			LTIB4			LLMAL			LHEE			LMT1			LMT2			RTHI			RTHI2			RTHI3			RTHI4			RLFC			RTIB1			RTIB2			RTIB3			RTIB4			RLMAL			RHEE			RMT1			RMT2			RMT5		
		X1	Y1	Z1	X2	Y2	Z2	X3	Y3	Z3	X4	Y4	Z4	X5	Y5	Z5	X6	Y6	Z6	X7	Y7	Z7	X8	Y8	Z8	X9	Y9	Z9	X10	Y10	Z10	X11	Y11	Z11	X12	Y12	Z12	X13	Y13	Z13	X14	Y14	Z14	X15	Y15	Z15	X16	Y16	Z16	X17	Y17	Z17	X18	Y18	Z18	X19	Y19	Z19	X20	Y20	Z20	X21	Y21	Z21	X22	Y22	Z22	X23	Y23	Z23	X24	Y24	Z24	X25	Y25	Z25	X26	Y26	Z26	X27	Y27	Z27	X28	Y28	Z28	X29	Y29	Z29	X30	Y30	Z30	X31	Y31	Z31	X32	Y32	Z32	X33	Y33	Z33	X34	Y34	Z34	X35	Y35	Z35	X36	Y36	Z36	X37	Y37	Z37	X38	Y38	Z38	X39	Y39	Z39	X40	Y40	Z40	X41	Y41	Z41	X42	Y42	Z42	X43	Y43	Z43	X44	Y44	Z44	X45	Y45	Z45	X46	Y46	Z46	X47	Y47	Z47	X48	Y48	Z48	X49	Y49	Z49	X50	Y50	Z50	X51	Y51	Z51	X52	Y52	Z52	X53	Y53	Z53	X54	Y54	Z54
																																																																																																																																																																			
998	4.985	-2148.292826	1533.995355	315.986778	-2323.170422	1562.351466	224.348407	-2289.117478	1541.572626	344.787656	-2385.871017	1439.708345	269.906594	-2614.495397	1175.578969	311.261204	-2306.50852	1298.310143	250.888249	-2319.811158	1355.25832	111.883164	-2486.443015	1309.632733	0.092184	-2492.926106	1261.678131	3.296048	-2546.026236	1280.39359	-17.759786	-2658.218395	1238.727079	-38.868744	-2682.576424	1241.686789	28.176379	-2673.858572	982.432349	-21.370404	-2743.62475	981.93542	-50.098611	-2649.944015	939.402192	-72.518055	-2299.665401	1379.597101	405.52069	-2345.44724	1240.200659	516.513084	-2320.096876	1202.096446	505.809712	-2360.058816	1180.930598	550.2894	-2372.239762	1047.491989	580.46662	-2405.149168	1021.83545	518.441264	-2141.26083	1037.278617	466.987751	-2136.127012	985.456186	504.001465	-2074.032809	1060.154964	503.230419	-2530.052912	937.257718	407.719341	-2663.934525	1095.999215	314.507835	-2683.380263	1068.187983	286.645238	-2675.486923	1066.554238	344.263823	-2505.803447	788.629858	80.738495	-2427.90555	752.265035	76.735023	-2393.399557	782.133337	93.279384	-2413.449504	692.317293	85.402485	-2271.3345	454.005933	143.876893	-2331.832515	406.385814	102.108913	-2292.675025	405.615922	122.66335	-2291.346206	329.118476	165.412822	-2352.89794	172.914999	171.062227	-2422.328192	128.828562	227.285834	-2199.858193	141.49079	231.350363	-2200.426779	134.732238	184.528541	-2668.783461	707.22871	471.416727	-2658.090024	642.450768	462.195504	-2629.501444	629.268285	451.827861	-2719.571303	584.313617	453.485938	-2761.007573	485.793973	429.918821	-2951.254948	397.234934	376.249623	-3040.064602	454.504151	407.544076	-3034.276486	411.544855	393.466397	-3077.094118	394.573337	354.777018	-3181.901252	441.61711	378.624656	-3208.845395	511.63478	329.627192	-3238.255314	289.459438	288.554644	-3246.398269	287.779741	330.985036	-3278.733266	328.398359	379.607204
999	4.99	-2118.234788	1534.670714	313.46596	-2293.296373	1563.490464	222.272897	-2258.948722	1542.228654	342.527244	-2355.378191	1441.174932	268.275843	-2584.423097	1178.448593	311.565309	-2277.122502	1299.020819	249.209646	-2291.750245	1356.225845	110.139157	-2457.817526	1301.603748	-0.848535	-2461.758984	1253.609212	3.233178	-2515.649977	1268.765811	-18.538981	-2625.586653	1220.153945	-38.49724	-2650.36372	1222.765151	28.594052	-2620.962282	964.597531	-14.62436	-2690.336625	957.888283	-43.299894	-2593.407536	922.304217	-64.044955	-2267.833663	1377.383025	404.941235	-2320.915035	1239.386041	515.677408	-2297.818198	1199.750347	504.399795	-2338.932498	1180.61025	548.6238	-2359.842629	1048.338669	580.29264	-2392.362112	1024.440641	517.667481	-2125.465939	1010.116361	479.224932	-2128.01835	958.237407	516.715662	-2057.373086	1025.555194	518.630586	-2498.239391	939.604363	407.698232	-2634.12769	1097.820798	315.865969	-2653.742306	1070.035698	288.200451	-2644.98891	1068.202922	345.628984	-2482.401716	786.119493	79.873618	-2405.650462	747.0714	75.276176	-2369.981031	776.004282	90.774161	-2393.021348	686.756857	84.465044	-2251.405852	446.85499	141.63541	-2312.895633	398.996487	101.649307	-2273.215864	398.32738	121.145808	-2270.412977	321.998837	164.100619	-2331.223931	165.545959	171.66206	-2399.587208	122.351721	229.549608	-2177.212723	133.900038	229.832357	-2178.602379	126.459954	183.102122	-2631.207367	705.843095	471.288015	-2618.35824	641.592268	462.84478	-2589.314752	629.390516	452.422918	-2677.768461	581.278382	454.246549	-2715.951768	482.315677	430.445899	-2907.882538	402.180851	374.134519	-2994.42797	462.921788	405.135472	-2990.270046	419.792592	389.780518	-3033.574769	405.415745	351.199319	-3136.464263	456.801105	374.888855	-3160.802742	528.355775	326.277296	-3196.785674	307.60256	283.39829	-3205.256378	305.886243	325.854781	-3236.664659	347.079189	374.663425
1000	4.995	-2088.389085	1535.029385	311.045743	-2263.497197	1564.404538	220.093093	-2229.025695	1542.701349	340.22983	-2325.163274	1442.302426	266.607948	-2554.230071	1180.717906	311.98646	-2247.794377	1299.57542	247.424763	-2263.820976	1357.085803	108.476802	-2428.687449	1293.121507	-1.52124	-2429.916599	1245.226338	3.317517	-2484.479002	1256.676433	-18.967631	-2591.581985	1201.003779	-37.792538	-2616.732719	1203.04233	29.328536	-2566.365693	947.93434	-7.574243	-2634.833129	934.938675	-36.038036	-2535.177799	906.757976	-55.316634	-2236.46018	1375.06911	404.198134	-2296.164648	1238.759246	514.892057	-2275.301575	1197.823166	503.027938	-2317.300304	1180.643435	546.990364	-2346.837087	1050.151711	580.356398	-2378.786513	1027.806582	517.157374	-2112.783857	983.942383	491.751578	-2122.903715	933.012908	529.677633	-2044.776928	992.124509	534.363127	-2466.405671	941.385348	407.571803	-2604.174565	1099.091442	317.315411	-2623.993169	1071.360321	289.89012	-2614.350825	1069.273869	347.122097	-2459.285238	783.552379	79.08411	-2383.68981	741.958347	74.012529	-2346.963936	769.992977	88.450898	-2372.761141	681.350221	83.73104	-2232.61936	439.511343	139.518451	-2295.365241	391.886485	101.258979	-2255.228196	391.043094	119.693086	-2251.543082	314.85461	162.760724	-2312.636823	158.55797	172.192776	-2380.270471	116.604339	231.566102	-2157.995155	125.782611	228.509167	-2160.161623	117.737538	181.90429	-2593.282073	704.274252	470.970051	-2578.241328	640.641564	463.376927	-2548.751466	629.448073	452.879323	-2635.445396	578.203883	454.772952	-2670.200242	478.929376	430.751471	-2863.260307	406.710772	372.075856	-2947.540219	470.56709	402.824611	-2944.869686	427.314576	386.181719	-2988.553285	415.418198	347.872583	-3089.40755	470.750502	371.441634	-3111.549791	543.632989	323.171509	-3153.287877	324.190346	279.004145	-3161.952288	322.467326	321.498587	-3192.467644	364.182029	370.488533
1001	5	-2058.789057	1535.117957	308.752018	-2233.784756	1565.074392	217.786104	-2199.391189	1543.032903	337.884586	-2295.245094	1443.061783	264.92525	-2523.930131	1182.334346	312.545953	-2218.522525	1299.971694	245.562616	-2236.027388	1357.836408	106.916615	-2398.97576	1284.247157	-1.918734	-2397.326543	1236.608436	3.554628	-2452.422023	1244.220902	-19.031868	-2556.065555	1181.442237	-36.770268	-2581.536108	1182.688123	30.367911	-2510.161035	932.682238	-0.22255	-2577.171798	913.399111	-28.357981	-2475.383548	893.013842	-46.351227	-2205.548918	1372.719689	403.32964	-2271.210687	1238.322064	514.20963	-2252.54854	1196.296928	501.799366	-2295.19656	1181.036384	545.529466	-2333.171134	1052.914212	580.758121	-2364.472811	1031.889481	517.037853	-2103.158046	959.279553	504.276883	-2120.533294	910.298161	542.65376	-2036.083501	960.542356	550.002001	-2434.541888	942.575771	407.264106	-2574.077902	1099.798096	318.860666	-2594.134584	1072.157719	291.701823	-2583.594539	1069.751033	348.734059	-2436.360902	780.942344	78.409616	-2361.926095	736.967333	72.952605	-2324.240136	764.164189	86.320829	-2352.556266	676.142433	83.195196	-2214.932734	431.938003	137.607805	-2279.104814	384.984695	100.912983	-2238.605805	383.706452	118.361889	-2234.673179	307.631519	161.471808	-2297.027548	151.892581	172.656078	-2364.293675	111.441063	233.253697	-2142.119384	117.233997	227.507153	-2144.977096	108.693494	181.051338	-2555.017417	702.554623	470.556351	-2537.726965	639.613567	463.758595	-2507.810446	629.465068	453.158228	-2592.576788	575.104077	455.058754	-2623.739633	475.633541	430.825585	-2817.446845	410.790578	370.080018	-2899.50455	477.409863	400.63377	-2898.186145	434.092981	382.784032	-2942.156534	424.512445	344.845705	-3040.900486	483.386309	368.329873	-3061.328893	557.404515	320.353112	-3107.923387	339.081334	275.455112	-3116.621318	337.376815	318.005028	-3146.259543	379.549454	367.180835
